<svg width="42" height="47" viewBox="0 0 42 47" fill="none" xmlns="http://www.w3.org/2000/svg">
<path d="M15.68 42.2067V42.2067C16.0053 42.8302 15.8439 43.5969 15.2946 44.0363L13.8725 45.174C12.9112 45.9431 11.49 45.6694 10.883 44.5983L8.57675 40.5284C7.92482 39.3779 8.54887 37.9228 9.83172 37.6021L11.3509 37.2223C12.2478 36.9981 13.1828 37.4203 13.6104 38.24V38.24M15.68 42.2067L18.9038 39.4754C18.9944 39.3986 19.0917 39.3301 19.1945 39.2705L24.1332 36.4113C24.2838 36.3241 24.4223 36.2177 24.5453 36.0947L27.7705 32.8695C27.9225 32.7175 28.049 32.542 28.1451 32.3497L29.6921 29.2558C30.0193 28.6014 29.8911 27.8111 29.3737 27.2937V27.2937C28.8823 26.8023 28.1411 26.6595 27.5023 26.9333L27.2734 27.0314C26.8386 27.2177 26.4839 27.5522 26.2724 27.9753L25.7781 28.9637C25.5846 29.3508 25.2708 29.6646 24.8837 29.8581L21.7564 31.4218C21.6258 31.4871 21.4886 31.5379 21.347 31.5732L19.367 32.0683C18.6489 32.2478 17.8904 32.016 17.3953 31.4659L15.7914 29.6837C15.7172 29.6014 15.6501 29.513 15.5906 29.4196L14.2958 27.3848C13.9574 26.8531 13.3005 26.6198 12.7025 26.8192V26.8192C11.9095 27.0835 11.5345 27.9889 11.9083 28.7366L11.9632 28.8464C12.0142 28.9484 12.0769 29.0443 12.15 29.132L13.1984 30.3901C13.3581 30.5817 13.4805 30.8014 13.5593 31.038L14.2066 32.9798C14.2554 33.1261 14.2871 33.2776 14.301 33.4312L14.5097 35.7268C14.5426 36.0888 14.4763 36.4528 14.3178 36.7799L13.6104 38.24M15.68 42.2067L13.6104 38.24M3.92 22.56H38.4851C38.9474 22.56 39.3969 22.718 39.7385 23.0295C40.1071 23.3657 40.5816 23.8297 40.88 24.24V24.24C41.5941 25.2219 40.7039 26.48 39.4898 26.48H2.40161C1.17233 26.48 0.173714 25.273 0.84 24.24V24.24C1.12276 23.8016 1.61865 23.3251 1.99862 22.9919C2.32884 22.7024 2.75796 22.56 3.19715 22.56H3.92ZM3.92 22.56C3.92 22.56 4.00624 19.5975 4.48 17.8C5.02246 15.7418 6.62892 13.3071 6.94548 12.8397C6.98208 12.7857 7.02088 12.7355 7.06369 12.6862C7.45808 12.2326 9.61133 9.79918 11.48 8.56C13.314 7.34384 14.7418 6.81876 16.8 6.04C17.6085 5.73407 18.3496 5.58037 19.18 5.34M38.08 22.56C38.08 20.7011 37.9416 19.6105 37.52 17.8C37.0096 15.6083 35.0021 12.763 35 12.76C34.9999 12.7599 35.0001 12.7601 35 12.76C34.9979 12.757 32.9761 9.89402 31.08 8.56C29.2368 7.2632 25.8947 6.08712 25.764 6.04138C25.7598 6.03992 25.7585 6.03949 25.7543 6.03808C25.6587 6.00558 24.3716 5.56944 23.52 5.34M19.18 5.34C20.16 4.64 20.16 4.64 21.28 4.64C22.4 4.64 22.5993 4.70228 23.52 5.34M19.18 5.34C19.1253 4.41055 18.7273 3.83696 19.04 2.96C19.4304 1.86516 20.1176 1 21.28 1C22.4424 1 23.0937 1.87862 23.52 2.96C23.8609 3.82469 23.52 4.41055 23.52 5.34" stroke="#D77E2A" stroke-linecap="round" stroke-linejoin="round"/>
<path d="M12.3195 41.8804L13.4395 43.5604M9.51953 18.0804C9.51953 18.0804 10.7667 14.6708 12.3195 13.0404C13.6791 11.6129 14.6913 10.9777 16.5195 10.2404C18.6708 9.37277 22.3995 9.40039 22.3995 9.40039" stroke="#D77E2A" stroke-linecap="round" stroke-linejoin="round"/>
</svg>
