<svg width="20" height="23" viewBox="0 0 20 23" fill="none" xmlns="http://www.w3.org/2000/svg">
<path d="M12.9459 14.9367L13.1839 14.8912L12.9459 14.9367ZM12.9459 14.9367C12.9453 14.9334 12.9447 14.9302 12.9441 14.9269L12.6909 14.9753L12.9459 14.9367ZM8.4741 13.3243C8.47408 13.3243 8.47406 13.3243 8.47404 13.3243L8.4741 13.3243Z" fill="#D77E2A" stroke="#D77E2A"/>
<path d="M3.11133 10.2783H16.8226M3.54661 18.7684H16.0609" stroke="#D77E2A"/>
<path d="M17.1497 6.29578L15.7351 21.9133H3.76487L2.89431 6.29578M17.1497 6.29578H18.9997V4.72355L15.7351 3.98985L14.8645 1.26465H4.74425L4.09133 3.98985M17.1497 6.29578H2.89431M4.09133 3.98985L0.935547 4.72355V6.29578H2.89431M4.09133 3.98985H13.2322" stroke="#D77E2A"/>
</svg>
