<svg width="28" height="24" viewBox="0 0 28 24" fill="none" xmlns="http://www.w3.org/2000/svg">
<path d="M4.57031 3.92384L7.44441 7.46906M8.01923 2.04697L12.6178 7.46906M13.001 1.62988L17.7911 7.46906M17.7911 1.62988L22.7729 7.46906M15.6835 1.62988L20.282 7.46906M10.1269 1.62988L15.1087 7.46906M6.29477 2.67259L10.1269 7.46906" stroke="#D77E2A" stroke-linecap="round" stroke-linejoin="round"/>
<path d="M24.686 7.3678L20.4707 2.36279" stroke="#D77E2A" stroke-linecap="round" stroke-linejoin="round"/>
<path d="M9.89648 11.4497V12.8899M9.89648 16.1438L11.8902 15.8237M13.3854 16.5172L14.5484 17.1573" stroke="#D77E2A" stroke-linecap="round" stroke-linejoin="round"/>
<path d="M5.81703 13.2759L4.19922 16.1698" stroke="#D77E2A" stroke-linecap="round" stroke-linejoin="round"/>
<path d="M9.28335 13.3862C9.28335 13.3862 8.76334 14.7218 8.18555 14.6662M13.0968 13.3862C13.4754 14.1222 13.5416 14.6539 14.1946 15.167M18.1813 12.9966C18.1195 14.3985 18.242 15.1679 19.3369 16.447M22.5147 12.9966C22.2078 13.8404 22.7458 14.4992 23.2659 14.6105" stroke="#D77E2A" stroke-linecap="round" stroke-linejoin="round"/>
<path d="M1.31055 14.5614L4.37625 13.1016" stroke="#D77E2A" stroke-linecap="round" stroke-linejoin="round"/>
<path d="M23.5369 19.7752C23.5369 19.7752 24.6996 19.8334 25.0697 20.4008C25.4613 21.001 24.7755 21.8796 24.2486 22.4202C23.9278 22.7493 23.4776 22.9033 23.018 22.9033H5.73809C5.23228 22.9033 4.73836 22.7169 4.41736 22.326C3.96539 21.7756 3.44351 20.9513 3.80143 20.4008C4.17072 19.8328 5.33428 19.7752 5.33428 19.7752M23.5369 19.7752H5.33428M23.5369 19.7752H25.2282C25.6246 19.7752 26.0184 19.6637 26.3082 19.3933C26.6052 19.1162 26.9407 18.7204 26.9858 18.3154C27.0402 17.8268 26.6751 17.2984 26.3421 16.9271C26.0379 16.5878 25.5877 16.4385 25.132 16.4385H3.73916C3.28343 16.4385 2.83326 16.5878 2.52902 16.9271C2.19609 17.2984 1.83096 17.8268 1.88537 18.3154C1.93047 18.7204 2.26597 19.1162 2.56298 19.3933C2.85277 19.6637 3.24659 19.7752 3.6429 19.7752H5.33428M1.31055 14.5616L3.98297 16.6623C4.42784 17.012 5.06262 16.9794 5.4693 16.5859L5.85392 16.2138C6.17715 15.9011 6.70686 15.9683 6.94178 16.3518V16.3518C7.12016 16.643 7.48209 16.7639 7.79963 16.6382L10.2828 15.6554C11.0046 15.3697 11.8264 15.5275 12.3911 16.0602L13.2068 16.8296C13.7864 17.3763 14.7238 17.2415 15.1259 16.5538V16.5538C15.4426 16.0122 16.1142 15.7929 16.6895 16.0433L18.6209 16.8842C19.1289 17.1054 19.7219 16.9092 19.9977 16.4288V16.4288C20.2688 15.9567 20.8474 15.7579 21.3514 15.9636L22.6359 16.4879C23.2047 16.72 23.8486 16.6779 24.3822 16.3736L25.5487 15.7086V15.7086C26.3893 15.2294 26.3349 13.9999 25.4553 13.5968L23.9201 12.8933M23.9201 12.8933C23.9201 12.8933 24.6865 12.372 24.6865 11.8506C24.6865 11.6247 24.5427 11.3989 24.3797 11.2155C24.1133 10.9156 23.7056 10.8079 23.3044 10.8079H22.3623C22.0024 10.8079 21.6263 10.8796 21.369 11.1312C21.1571 11.3385 21.0904 11.5462 21.046 11.8506M23.9201 12.8933L21.8124 12.9158M9.86778 11.8506C9.83782 11.5381 9.69641 11.3317 9.44589 11.1294C9.15568 10.8951 8.77713 10.8079 8.40414 10.8079H4.64007C4.46495 10.8079 4.28995 10.8294 4.12582 10.8904C3.74905 11.0306 3.07578 11.3497 3.035 11.8506C2.99334 12.3623 3.63652 12.7595 4.04694 12.9594C4.26047 13.0633 4.49784 13.1005 4.73533 13.098L8.9748 13.0527M9.86778 11.8506C9.78396 12.3367 9.54231 12.604 8.9748 13.0527M9.86778 11.8506C9.85907 11.4013 10.3826 11.0845 10.7261 10.9254C10.9152 10.8377 11.1236 10.8079 11.3321 10.8079H14.4515C14.7562 10.8079 15.0675 10.8678 15.2922 11.0737C15.4857 11.251 15.681 11.5135 15.681 11.8506M9.86778 11.8506C10.0153 12.5463 10.2059 12.754 10.8909 13.0323M8.9748 13.0527L10.8909 13.0323M15.681 11.8506C15.5633 12.7578 15.1197 12.9872 14.9146 12.9894M15.681 11.8506C15.681 11.4864 15.9091 11.2092 16.1164 11.0325C16.3173 10.8614 16.5846 10.8079 16.8485 10.8079H19.2457C19.7381 10.8079 21.0333 11.3583 21.046 11.8506V11.8506M15.681 11.8506C15.681 12.5182 16.4474 12.973 16.4474 12.973M14.9146 12.9894L10.8909 13.0323M14.9146 12.9894L16.4474 12.973M21.046 11.8506C21.1536 12.3453 20.6298 12.9303 20.4712 12.9301M21.046 11.8506C21.046 12.5698 21.8124 12.9158 21.8124 12.9158M20.4712 12.9301L16.4474 12.973M20.4712 12.9301L21.8124 12.9158M25.0697 8.09681C25.0697 8.31512 25.0697 8.55867 25.0697 8.80776C25.0697 9.91233 24.1743 10.8079 23.0697 10.8079H4.901C3.85017 10.8079 2.96664 9.99358 2.98679 8.94295C2.99247 8.64664 3.00687 8.35358 3.035 8.09681C3.17257 6.84141 3.23729 6.07388 3.80143 4.96869C5.71749 1.21493 11.4657 1.42347 15.4894 1.42347C19.5131 1.42348 22.1956 2.25765 23.9201 4.55161C24.795 5.7155 25.0697 6.84557 25.0697 8.09681Z" stroke="#D77E2A" stroke-linecap="round" stroke-linejoin="round"/>
</svg>
