<svg width="26" height="24" viewBox="0 0 26 24" fill="none" xmlns="http://www.w3.org/2000/svg">
<path d="M3.12981 17.5835L2.79588 17.9043C2.23519 18.4429 1.91827 19.1867 1.91827 19.9642V20.0129C1.91827 21.5635 3.17525 22.8204 4.7258 22.8204V22.8204C5.45086 22.8204 6.1478 22.5399 6.6707 22.0377L7.67309 21.0748M3.12981 17.5835L2.83902 17.374C1.90069 16.6981 1.36954 15.9999 1.4779 14.8485V14.8485C1.55741 14.0037 1.92304 12.7458 2.53663 12.1597L12.9915 2.17355C13.7685 1.43136 14.8394 1.0803 15.905 1.21847V1.21847C16.5931 1.30768 17.24 1.59621 17.7661 2.04851L18.577 2.74564M3.12981 17.5835L18.577 2.74564M18.577 2.74564L19.5794 1.78278C20.1022 1.2805 20.7992 1 21.5242 1V1C23.0748 1 24.3318 2.25698 24.3318 3.80753V3.85625C24.3318 4.63371 24.0149 5.37757 23.4542 5.91614L23.1202 6.23691M7.67309 21.0748L8.06277 21.4519C8.7681 22.1344 9.71115 22.516 10.6926 22.516V22.516C11.6713 22.516 12.6119 22.1366 13.3166 21.4575L23.5178 11.6288C24.0471 11.1189 24.4032 10.4558 24.536 9.73284V9.73284C24.7812 8.39743 24.2219 7.03055 23.1202 6.23691V6.23691M7.67309 21.0748L23.1202 6.23691" stroke="#D77E2A" stroke-linecap="round" stroke-linejoin="round"/>
<path d="M4.87305 18.7664C4.87305 18.7664 5.4672 19.5952 6.37756 19.3436C7.49537 19.0346 8.05997 18.651 8.48388 17.6119C8.86926 16.6673 8.39939 15.9591 8.78478 15.0145C9.20868 13.9754 9.80779 13.4008 10.8911 12.9942C11.876 12.6246 12.6143 13.0753 13.5992 12.7056C14.6825 12.2991 15.7055 11.0098 15.7055 10.1082C15.7055 9.20652 15.7055 9.85542 15.7055 8.95376C15.7055 8.0521 16.8996 6.87791 18.1128 6.3563C19.1904 5.89297 20.2167 6.79535 21.1218 6.0677C21.6469 5.64551 22.0482 5.28147 22.0245 4.62467C21.9984 3.90342 21.5488 3.36436 20.8209 3.18164" stroke="#D77E2A" stroke-linecap="round" stroke-linejoin="round"/>
</svg>
