<svg width="16" height="24" viewBox="0 0 16 24" fill="none" xmlns="http://www.w3.org/2000/svg">
<path d="M14.1331 12.6498C14.1331 12.6498 14.7444 12.5416 14.9527 12.0951C15.239 11.4815 14.1331 10.8007 14.1331 10.8007M14.1331 12.6498H1.53125M14.1331 12.6498L13.6762 15.701M14.1331 10.8007C14.1331 10.8007 13.7717 8.03331 12.5963 6.73246C11.3511 5.35444 10.0907 4.6059 8.14408 4.6059C5.84114 4.6059 4.579 5.22727 3.17051 6.73246C1.96191 8.02405 1.53125 10.8007 1.53125 10.8007M14.1331 10.8007H1.53125M1.53125 10.8007C1.53125 10.8007 0.311982 11.4045 0.609174 12.0951C0.843174 12.6389 1.53125 12.6498 1.53125 12.6498M1.53125 12.6498L2.0186 15.701M7.88339 8.11935V3.16519C7.88339 2.45418 8.26087 1.79662 8.87487 1.43809L9.6251 1M2.0186 15.701H13.6762M2.0186 15.701L2.69793 19.9541M13.6762 15.701L13.0393 19.9541M2.69793 19.9541L2.90145 21.2283C3.05646 22.1988 3.89362 22.9128 4.87641 22.9128H10.8734C11.8636 22.9128 12.7048 22.1883 12.8514 21.209L13.0393 19.9541M2.69793 19.9541H13.0393M4.80977 17.7351H6.24413M8.19075 17.7351H11.4693" stroke="#D77E2A" stroke-linecap="round" stroke-linejoin="round"/>
</svg>
