<svg width="13" height="24" viewBox="0 0 13 24" fill="none" xmlns="http://www.w3.org/2000/svg">
<path d="M2.6582 8.40039C3.69069 8.40039 4.9459 8.40039 5.97839 8.40039M8.68372 8.40039C8.99587 8.40039 9.17088 8.40039 9.48302 8.40039H10.2208H10.0979M10.2208 10.0114C10.0979 10.0114 8.43778 10.0114 8.25333 10.0114M7.26957 10.0114C5.73284 10.0114 4.19493 10.0114 2.6582 10.0114M7.51551 9.4576C7.51551 9.4576 8.97698 10.8383 9.91342 11.723M10.2208 12.7803L11.512 15.2471" stroke="#D77E2A" stroke-linecap="round" stroke-linejoin="round"/>
<path d="M9.60693 11.4717H2.59766M10.5907 13.5861H2.59766M9.97584 15.4488H7.2433M5.63055 15.4488H2.59766M9.97584 17.6136H2.59766M9.97584 19.8287H2.59766M9.97584 21.4396H2.59766" stroke="#D77E2A" stroke-linecap="round" stroke-linejoin="round"/>
<path d="M2.1759 5.58124V5.58124C1.68663 5.22514 1 5.57463 1 6.17977V22C1 22.5523 1.44772 23 2 23H10.5139C11.0662 23 11.5139 22.5523 11.5139 22V5.8222C11.5139 5.45816 11.0556 5.29718 10.828 5.58124V5.58124M2.1759 5.58124L3.49014 6.53776M2.1759 5.58124L3.0021 4.59954M6.16473 3.61785H4.29372C3.99864 3.61785 3.71862 3.74817 3.52862 3.97393L3.0021 4.59954M6.16473 3.61785L6.56582 4.71254C6.6628 4.97723 6.64356 5.27055 6.51283 5.5203L6.16473 6.18535M6.16473 3.61785L7.33824 2.98832C7.70501 2.79157 8.1553 2.84256 8.46878 3.11635L9.79234 4.27231M6.16473 6.18535L3.49014 6.53776M6.16473 6.18535L7.64037 7.19222M3.49014 6.53776L6.86858 8.99664C7.30051 9.311 7.90325 9.23036 8.23734 8.81351L8.77015 8.14874M7.64037 7.19222L8.77015 8.14874M7.64037 7.19222C7.76042 6.72037 8.3167 5.58124 8.00927 6.2357M8.77015 8.14874L10.828 5.58124M10.828 5.58124L9.79234 4.27231M9.79234 4.27231H9.1961C8.92396 4.27231 8.66358 4.38322 8.47503 4.57945L7.94779 5.12815M3.0021 4.59954L2.69634 4.23624C2.41484 3.90176 2.47544 3.39883 2.82834 3.14078V3.14078C2.94192 3.05774 3.03002 2.9446 3.08272 2.81414L3.23749 2.43097C3.39018 2.05297 3.75704 1.80549 4.16471 1.80549H4.31388C4.55579 1.80549 4.78949 1.7178 4.97169 1.55867L5.05876 1.48263C5.38201 1.20032 5.85758 1.1792 6.20458 1.43175V1.43175C6.51363 1.65668 6.92963 1.66693 7.24938 1.45748L7.49533 1.29637C7.77765 1.11145 8.13419 1.0814 8.44347 1.21646L9.19253 1.54356C9.55685 1.70266 9.79234 2.06245 9.79234 2.45999V2.66133" stroke="#D77E2A" stroke-linecap="round" stroke-linejoin="round"/>
<path d="M9.69411 2.48975L9.75689 2.51475C10.2812 2.72356 10.6252 3.23087 10.6252 3.7952V3.7952C10.6252 3.9653 10.6566 4.13393 10.718 4.29258L11.1094 5.30413M2.41525 3.97971L1.4043 5.30413" stroke="#D77E2A" stroke-linecap="round" stroke-linejoin="round"/>
</svg>
