<svg width="26" height="24" viewBox="0 0 26 24" fill="none" xmlns="http://www.w3.org/2000/svg">
<path d="M0.689453 21.345L0.689463 5.61084C0.689464 3.95398 2.03261 2.61084 3.68946 2.61084H15.5434C16.3002 2.61084 16.9137 3.22437 16.9137 3.98119V3.98119C16.9137 5.06142 18.1308 5.69241 19.1938 5.50013C19.302 5.48056 19.4082 5.46736 19.5107 5.46207C20.7717 5.397 21.5801 5.71642 22.5696 6.47225C23.6015 7.26051 23.968 8.40842 24.3175 9.25024C24.6671 10.0921 25.0892 12.7186 24.3175 14.722C23.8695 15.8851 23.5694 16.6337 22.5696 17.4158C21.5804 18.1896 20.7829 18.5798 19.5107 18.5102V18.5102C18.31 18.4445 16.9137 19.0594 16.9137 20.2619V21.345M0.689453 21.345V21.345C0.835671 22.1415 1.52705 22.7218 2.33682 22.7278L14.8934 22.8204C15.8182 22.8272 16.6387 22.2281 16.9137 21.345V21.345M0.689453 21.345H12.2828M16.9137 21.345H15.9875M13.672 21.345H14.7526M19.5107 8.24006C19.1088 8.20237 18.6497 8.33018 18.2304 8.50643C17.352 8.87567 16.9137 9.81263 16.9137 10.7655V13.2068C16.9137 14.1596 17.352 15.0966 18.2304 15.4658C18.6497 15.6421 19.1088 15.7699 19.5107 15.7322C20.3919 15.6495 20.9489 15.3731 21.5208 14.722C22.5696 13.5281 22.5696 10.5207 21.5208 9.25024C20.9698 8.58269 20.3919 8.32272 19.5107 8.24006Z" stroke="#D77E2A" stroke-linecap="round" stroke-linejoin="round"/>
<path d="M11.3565 1.42139V9.89637M11.3565 9.89637L10.0233 11.0093C9.40082 11.5289 9.04102 12.298 9.04102 13.1088V13.4511C9.04102 14.7725 10.1122 15.8437 11.4337 15.8437V15.8437C12.7551 15.8437 13.8263 14.7725 13.8263 13.4511V13.1444C13.8263 12.3143 13.4444 11.5303 12.7906 11.0187L11.3565 9.89637ZM11.3565 12.1266V14.6543" stroke="#D77E2A" stroke-linecap="round" stroke-linejoin="round"/>
</svg>
